<svg width="11" height="7" viewBox="0 0 11 7" fill="none" xmlns="http://www.w3.org/2000/svg">
<path d="M6.4642 5.95079L10.7042 1.71079C10.7979 1.61783 10.8723 1.50723 10.9231 1.38537C10.9739 1.26351 11 1.1328 11 1.00079C11 0.868781 10.9739 0.738075 10.9231 0.616216C10.8723 0.494356 10.7979 0.383755 10.7042 0.290792C10.5168 0.104542 10.2634 0 9.9992 0C9.73502 0 9.48156 0.104542 9.2942 0.290792L5.7542 3.83079L2.2142 0.290792C2.02684 0.104542 1.77339 0 1.5092 0C1.24502 0 0.991564 0.104542 0.804201 0.290792C0.71152 0.384233 0.638195 0.495049 0.58843 0.616886C0.538666 0.738724 0.513441 0.869186 0.514202 1.00079C0.513441 1.1324 0.538666 1.26286 0.58843 1.3847C0.638195 1.50654 0.71152 1.61735 0.804201 1.71079L5.0442 5.95079C5.13717 6.04452 5.24777 6.11891 5.36963 6.16968C5.49148 6.22045 5.62219 6.24659 5.7542 6.24659C5.88621 6.24659 6.01692 6.22045 6.13878 6.16968C6.26064 6.11891 6.37124 6.04452 6.4642 5.95079Z" fill="white"/>
</svg>
